<mxfile host="app.diagrams.net" modified="2024-03-24T08:35:26.643Z" agent="Mozilla/5.0 (Windows NT 10.0; Win64; x64) AppleWebKit/537.36 (KHTML, like Gecko) Chrome/117.0.0.0 Safari/537.36 Edg/117.0.2045.43" version="23.1.2" etag="xmkyeIIv99ZCnon3bg4i" type="github">
  <diagram name="PÃ¡gina-1" id="yMAxkzrMtRHVNvODZ3IW">
    <mxGraphModel>
      <root>
        <mxCell id="0" />
        <mxCell id="1" parent="0" />
      </root>
    </mxGraphModel>
  </diagram>
</mxfile>
